<?xml version="1.0" encoding="utf-8"?>
<!-- Generator: Adobe Illustrator 16.0.0, SVG Export Plug-In . SVG Version: 6.00 Build 0)  -->
<!DOCTYPE svg PUBLIC "-//W3C//DTD SVG 1.1//EN" "http://www.w3.org/Graphics/SVG/1.1/DTD/svg11.dtd">
<svg version="1.1" id="Layer_1" xmlns="http://www.w3.org/2000/svg" xmlns:xlink="http://www.w3.org/1999/xlink" x="0px" y="0px"
	 width="377px" height="135.667px" viewBox="0 0 377 135.667" enable-background="new 0 0 377 135.667" xml:space="preserve">
<g display="none">
	<g display="inline">
		<g display="none">
			<path display="inline" fill="#105EFF" d="M136.39,134.737c-22.896-21.61-37.797-44.365-47.524-64.803
				c-1.473-3.092-2.843-6.138-4.087-9.109c-0.241,0.334-0.485,0.673-0.74,1.029c-2.686,3.728-6.132,8.432-9.013,12.131
				c-0.21,0.271-0.414,0.527-0.618,0.785c0.514,1.803,1.046,3.559,1.586,5.292c3.966,12.69,8.591,23.416,12.157,30.853
				c0.334,0.701,0.657,1.36,0.971,2c1.583,3.102,3.367,6.368,4.918,9.139c29.16,4.18,42.445,12.775,42.445,12.775
				C136.453,134.798,136.422,134.768,136.39,134.737z"/>
			<path display="inline" fill="#008FFE" d="M84.806,60.7c0,0-0.031,0.049-0.047,0.074c-0.252-0.6-0.477-1.183-0.717-1.776
				C84.293,59.567,84.545,60.138,84.806,60.7z"/>
			<path display="inline" fill="#008FFE" d="M70.189,1.19c0,0,0.067,0.854,0.227,2.383c-0.326,1.416-0.645,2.833-0.909,4.254
				C69.757,5.635,70.001,3.441,70.189,1.19z"/>
			<path display="inline" fill="#30B0FF" d="M71.363,78.449c0.141-0.155,0.306-0.353,0.459-0.526
				c-0.147,0.175-0.302,0.359-0.453,0.536L71.363,78.449z"/>
			<path display="inline" fill="#60CFFE" d="M93.941,122.038c0,0-1.968-3.338-4.818-9.123c1.583,3.102,3.367,6.368,4.918,9.139
				C94.006,122.048,93.976,122.041,93.941,122.038z"/>
			<path fill="#2447F8" d="M136.486,134.829c-0.033-0.03-0.063-0.061-0.096-0.092c0.302,0.196,0.599,0.38,0.899,0.58
				c0,0-15.488-9.576-43.126-13.045c-0.041-0.071-0.082-0.146-0.123-0.218C123.2,126.233,136.486,134.829,136.486,134.829z"/>
			<path fill="#0C3DEE" d="M1.805,135.349c0,0,0.03-0.017,0.075-0.039c19.083-9.554,35.375-22.232,48.348-34.425
				c7.938,1.378,18.841,3.769,31.38,7.816l2,12.612C61.896,120.063,34.258,122.847,1.805,135.349z"/>
			<path display="inline" fill="#2447F8" d="M89.123,112.915c-0.347-0.684-0.684-1.354-1.007-2.013
				c0.012,0.003,0.024,0.008,0.037,0.012C88.486,111.615,88.809,112.274,89.123,112.915z"/>
			<path display="inline" fill="#186BFF" d="M75.026,73.985c-0.21,0.271-0.414,0.527-0.618,0.785c0-0.001,0-0.004,0-0.008
				C74.62,74.497,74.819,74.245,75.026,73.985z"/>
			<path display="inline" fill="#186BFF" d="M69.506,7.827c-0.402,3.538-0.865,7.017-1.418,10.402
				C68.4,14.758,68.862,11.286,69.506,7.827z"/>
			<path display="inline" fill="#186BFF" d="M70.644,2.493c0,0,0.037,2.835,0.588,7.8c-0.39-2.839-0.653-5.143-0.816-6.72
				C70.497,3.215,70.558,2.852,70.644,2.493z"/>
			<path display="inline" fill="#186BFF" d="M84.758,60.773c0.007,0.017,0.013,0.035,0.021,0.051
				c-0.241,0.334-0.485,0.673-0.74,1.029C84.449,61.247,84.681,60.892,84.758,60.773z"/>
			<path display="inline" fill="#186BFF" d="M84.041,58.997c-3.397-7.663-6.007-15.913-7.989-23.723
				C77.96,42.409,80.548,50.411,84.041,58.997z"/>
			<path display="inline" fill="#008FFE" d="M76.052,35.274c-2.83-10.587-4.182-19.231-4.82-24.981
				C72.098,16.607,73.595,25.59,76.052,35.274z"/>
			<path opacity="0.4" fill="#0827EC" d="M88.115,110.902c0.324,0.658,0.66,1.329,1.007,2.013c2.851,5.785,4.818,9.123,4.818,9.123
				c0.035,0.003,0.065,0.01,0.1,0.016c0.041,0.071,0.082,0.147,0.123,0.218c-3.342-0.419-6.861-0.746-10.555-0.958l-2-12.612
				C83.735,109.388,85.9,110.114,88.115,110.902z"/>
			<path fill="#1551F5" d="M84.779,60.825c-0.241,0.334-0.485,0.673-0.74,1.029c-2.686,3.728-6.132,8.432-9.013,12.131
				c-0.21,0.271-0.414,0.527-0.618,0.785c0.514,1.803,1.046,3.559,1.586,5.292l12.871-10.128
				C87.393,66.842,86.023,63.796,84.779,60.825z"/>
		</g>
		
			<linearGradient id="SVGID_1_" gradientUnits="userSpaceOnUse" x1="728.4639" y1="110.6548" x2="672.7821" y2="48.361" gradientTransform="matrix(-1 0 0 1 737.2051 0)">
			<stop  offset="0" style="stop-color:#46C8FE"/>
			<stop  offset="1" style="stop-color:#33B1FF"/>
		</linearGradient>
		<path display="none" fill="url(#SVGID_1_)" d="M68.088,18.229c0.553-3.385,1.016-6.864,1.418-10.402
			c0.265-1.421,0.583-2.838,0.909-4.254c0.163,1.577,0.426,3.881,0.816,6.72c0.638,5.75,1.99,14.394,4.82,24.981
			c1.982,7.811,4.592,16.06,7.989,23.723c0.24,0.593,0.465,1.177,0.717,1.776c-0.077,0.119-0.31,0.473-0.719,1.081
			c-2.686,3.728-6.132,8.432-9.013,12.131c-0.207,0.259-0.406,0.512-0.618,0.776c-0.818,1.016-1.681,2.07-2.585,3.161
			c-0.153,0.173-0.318,0.371-0.459,0.526l0.007,0.01c-5.498,6.576-12.592,14.389-21.142,22.426
			C37.255,113.078,20.962,125.756,1.88,135.31c-0.024,0.012-0.049,0.026-0.075,0.039C1.805,135.349,54.995,98.302,68.088,18.229z"/>
		<path fill="#105EFF" d="M136.486,134.829c0,0-13.312-8.615-42.545-12.791c0,0-37.041-62.553-23.297-119.545
			C70.644,2.493,71.284,73.363,136.486,134.829z"/>
		<linearGradient id="SVGID_2_" gradientUnits="userSpaceOnUse" x1="1.8047" y1="117.165" x2="137.2891" y2="117.165">
			<stop  offset="0" style="stop-color:#31FEFF"/>
			<stop  offset="1" style="stop-color:#2C54D8"/>
		</linearGradient>
		<path display="none" opacity="0.9" fill="url(#SVGID_2_)" d="M1.805,135.349c0,0,13.399-7.657,34.104-36.368
			c0,0,51.68,3.307,101.38,36.335C137.289,135.316,85.421,103.134,1.805,135.349z"/>
		
			<linearGradient id="SVGID_3_" gradientUnits="userSpaceOnUse" x1="728.4639" y1="110.6548" x2="672.7821" y2="48.361" gradientTransform="matrix(-1 0 0 1 737.2051 0)">
			<stop  offset="0" style="stop-color:#46C8FE"/>
			<stop  offset="1" style="stop-color:#33B1FF"/>
		</linearGradient>
		<path fill="url(#SVGID_3_)" d="M68.088,18.229c0.553-3.385,1.016-6.864,1.418-10.402c0.265-1.421,0.583-2.838,0.909-4.254
			c0.163,1.577,0.426,3.881,0.816,6.72c0.638,5.75,1.99,14.394,4.82,24.981c1.982,7.811,4.592,16.06,7.989,23.723
			c0.24,0.593,0.465,1.177,0.717,1.776c-0.077,0.119-0.31,0.473-0.719,1.081c-2.686,3.728-6.132,8.432-9.013,12.131
			c-0.207,0.259-0.406,0.512-0.618,0.776c-0.818,1.016-1.681,2.07-2.585,3.161c-0.153,0.173-0.318,0.371-0.459,0.526l0.007,0.01
			c-5.498,6.576-12.592,14.389-21.142,22.426C37.255,113.078,20.962,125.756,1.88,135.31c-0.024,0.012-0.049,0.026-0.075,0.039
			C1.805,135.349,54.995,98.302,68.088,18.229z"/>
		
			<linearGradient id="SVGID_4_" gradientUnits="userSpaceOnUse" x1="728.4639" y1="110.6548" x2="672.7821" y2="48.361" gradientTransform="matrix(-1 0 0 1 737.2051 0)">
			<stop  offset="0" style="stop-color:#31FEFF"/>
			<stop  offset="1" style="stop-color:#0394FF"/>
		</linearGradient>
		<path fill="url(#SVGID_4_)" d="M68.088,18.229c0.553-3.385,1.016-6.864,1.418-10.402c0.265-1.421,0.583-2.838,0.909-4.254
			c0.163,1.577,0.426,3.881,0.816,6.72c0.638,5.75,1.99,14.394,4.82,24.981c1.982,7.811,4.592,16.06,7.989,23.723
			c0.24,0.593,0.465,1.177,0.717,1.776c-0.077,0.119-0.31,0.473-0.719,1.081c-2.686,3.728-6.132,8.432-9.013,12.131
			c-0.207,0.259-0.406,0.512-0.618,0.776c-0.818,1.016-1.681,2.07-2.585,3.161c-0.153,0.173-0.318,0.371-0.459,0.526l0.007,0.01
			c-5.498,6.576-12.592,14.389-21.142,22.426C37.255,113.078,20.962,125.756,1.88,135.31c-0.024,0.012-0.049,0.026-0.075,0.039
			C1.805,135.349,54.995,98.302,68.088,18.229z"/>
		<g>
			<path opacity="0.9" fill="#2C54D8" d="M50.216,100.896C37.245,113.085,20.957,125.759,1.88,135.31
				c-0.024,0.012-0.049,0.026-0.075,0.039c83.616-32.215,135.484-0.033,135.484-0.033C103.603,112.93,69.013,104.2,50.216,100.896z"
				/>
			<path fill="#1C4BDC" d="M136.486,134.829c-0.039-0.037-0.076-0.074-0.115-0.11c-16.546-10.87-33.273-18.473-48.206-23.769
				c3.363,7.01,5.776,11.088,5.776,11.088C123.174,126.213,136.486,134.829,136.486,134.829z"/>
			
				<linearGradient id="SVGID_5_" gradientUnits="userSpaceOnUse" x1="728.4639" y1="110.6548" x2="672.7821" y2="48.361" gradientTransform="matrix(-1 0 0 1 737.2051 0)">
				<stop  offset="0" style="stop-color:#31FEFF"/>
				<stop  offset="1" style="stop-color:#0394FF"/>
			</linearGradient>
			<path fill="url(#SVGID_5_)" d="M35.909,98.981c0,0,5.371,0.345,14.307,1.916c0.004-0.004,0.008-0.007,0.012-0.011
				c8.55-8.038,15.645-15.85,21.142-22.426l-0.007-0.01c0.141-0.155,0.306-0.353,0.459-0.526c0.905-1.091,1.768-2.146,2.585-3.161
				c0.212-0.265,0.411-0.517,0.618-0.776c2.881-3.7,6.328-8.404,9.013-12.131c0.41-0.607,0.642-0.962,0.719-1.081
				c-0.252-0.6-0.477-1.183-0.717-1.776c-3.397-7.663-6.007-15.913-7.989-23.723c-2.83-10.587-4.182-19.231-4.82-24.981
				c-0.39-2.839-0.653-5.143-0.816-6.72c-0.326,1.416-0.645,2.833-0.909,4.254c-0.402,3.538-0.865,7.017-1.418,10.402
				C54.995,98.302,1.805,135.349,1.805,135.349S15.204,127.692,35.909,98.981z"/>
			<path opacity="0.9" fill="#2C54D8" d="M50.216,100.896c-8.936-1.57-14.307-1.916-14.307-1.916
				c-20.706,28.711-34.104,36.368-34.104,36.368c0.026-0.013,0.051-0.027,0.075-0.039C20.957,125.759,37.245,113.085,50.216,100.896
				z"/>
			<linearGradient id="SVGID_6_" gradientUnits="userSpaceOnUse" x1="25.0596" y1="119.2686" x2="72.0597" y2="62.6019">
				<stop  offset="0" style="stop-color:#31FEFF"/>
				<stop  offset="1" style="stop-color:#4265DC"/>
			</linearGradient>
			<path fill="url(#SVGID_6_)" d="M50.216,100.896c-8.936-1.57-14.307-1.916-14.307-1.916
				c-20.706,28.711-34.104,36.368-34.104,36.368c0.026-0.013,0.051-0.027,0.075-0.039C20.957,125.759,37.245,113.085,50.216,100.896
				z"/>
		</g>
	</g>
	<g id="texte_5_" display="inline">
		<g display="none">
			<rect x="155.909" y="89.411" display="inline" fill="none" width="629.553" height="148.254"/>
			
				<text transform="matrix(1 0 0 1 155.9082 116.8481)" display="inline" fill="#041A87" font-family="'Gotham-Medium'" font-size="37.5854">Embedded</text>
		</g>
		<rect x="-388.999" y="355.07" fill="none" width="225.512" height="63.687"/>
		
			<text transform="matrix(1 0 0 1 -389 409.9443)" display="none" fill="#0A1975" font-family="'Gotham-Medium'" font-size="75.1707">Ory</text>
		<g display="none">
			<g display="inline">
				<g>
					<path fill="#FFFFFF" d="M160.341,49.224v-0.151c0-14.808,11.425-27.21,27.585-27.21c16.158,0,27.435,12.252,27.435,27.06v0.151
						c0,14.806-11.427,27.208-27.586,27.208C171.615,76.281,160.341,64.028,160.341,49.224z M205.662,49.224v-0.151
						c0-10.222-7.438-18.715-17.887-18.715c-10.447,0-17.738,8.342-17.738,18.564v0.151c0,10.22,7.44,18.64,17.89,18.64
						C198.373,67.712,205.662,59.444,205.662,49.224z"/>
					<path fill="#FFFFFF" d="M294.519,54.636l-20.896-31.87h10.975l14.656,23.224l14.881-23.224h10.599l-20.895,31.641v20.97h-9.32
						V54.636z"/>
					<path fill="#FFFFFF" d="M375.323,22.766l-18.34,25.705l19.091,26.906h-10.897l-13.906-20.067l-13.83,20.067h-10.596
						l19.014-26.757l-18.263-25.854h10.896l13.08,19.09l13.151-19.09H375.323z"/>
					<path fill="#FFFFFF" d="M271.287,75.377l-14.206-19.916c7.291-2.106,12.477-7.29,12.477-15.936v-0.149
						c0-4.586-1.578-8.493-4.36-11.35c-3.381-3.305-8.567-5.261-15.181-5.261h-23.45v52.611h9.242V31.184h13.455
						c6.839,0,10.9,3.082,10.9,8.72v0.148c0,5.339-4.21,8.795-10.825,8.795h-7.392l7.969,11.782l10.396,14.749H271.287z"/>
				</g>
			</g>
			<g display="inline">
				<rect x="155.909" y="89.411" fill="none" width="629.553" height="148.254"/>
				<text transform="matrix(1 0 0 1 155.9082 116.8481)" fill="#FFFFFF" font-family="'Gotham-Book'" font-size="37.5854">Embedded</text>
			</g>
		</g>
		<g>
			<g>
				<g>
					<path fill="#041A87" d="M160.341,49.224v-0.151c0-14.808,11.425-27.21,27.585-27.21c16.158,0,27.435,12.252,27.435,27.06v0.151
						c0,14.806-11.427,27.208-27.586,27.208C171.615,76.281,160.341,64.028,160.341,49.224z M205.662,49.224v-0.151
						c0-10.222-7.438-18.715-17.887-18.715c-10.447,0-17.738,8.342-17.738,18.564v0.151c0,10.22,7.44,18.64,17.89,18.64
						C198.373,67.712,205.662,59.444,205.662,49.224z"/>
					<path fill="#041A87" d="M294.519,54.636l-20.896-31.87h10.975l14.656,23.224l14.881-23.224h10.599l-20.895,31.641v20.97h-9.32
						V54.636z"/>
					<path fill="#041A87" d="M271.287,75.377l-14.206-19.916c7.291-2.106,12.477-7.29,12.477-15.936v-0.149
						c0-4.586-1.578-8.493-4.36-11.35c-3.381-3.305-8.567-5.261-15.181-5.261h-23.45v52.611h9.242V31.184h13.455
						c6.839,0,10.9,3.082,10.9,8.72v0.148c0,5.339-4.21,8.795-10.825,8.795h-7.392l7.969,11.782l10.396,14.749H271.287z"/>
					<g>
						<polygon fill="#041A87" points="338.492,22.766 327.596,22.766 344.739,47.036 350.079,39.678 						"/>
						<polygon fill="#041A87" points="365.177,75.377 376.074,75.377 358.117,50.069 352.766,57.468 						"/>
						<polygon fill="#03E7FF" points="375.296,22.805 364.795,22.805 362.863,25.467 351.279,41.429 336.267,62.118 326.819,75.137 
							327.016,75.137 337.52,75.137 339.359,72.594 351.558,55.726 370.124,30.053 375.366,22.805 						"/>
						<g display="none">
							<polygon display="inline" fill="#FFFFFF" points="339.359,72.594 337.44,75.377 326.845,75.377 327.016,75.137 
								326.819,75.137 336.267,62.118 345.858,48.62 345.35,47.899 324.858,76.137 338.03,76.137 352.162,56.597 351.558,55.726 
															"/>
							<polygon display="inline" fill="#FFFFFF" points="345.858,48.62 336.267,62.118 351.279,41.429 350.68,40.554 345.35,47.899 
															"/>
							<polygon display="inline" fill="#FFFFFF" points="370.124,30.053 351.558,55.726 352.162,56.597 357.506,49.208 
								356.983,48.471 							"/>
							<polygon display="inline" fill="#FFFFFF" points="375.296,22.805 375.323,22.766 364.724,22.766 362.863,25.467 
								364.795,22.805 							"/>
							<polygon display="inline" fill="#FFFFFF" points="327.016,75.137 326.845,75.377 337.44,75.377 339.359,72.594 
								337.52,75.137 							"/>
							<polygon display="inline" fill="#FFFFFF" points="379.281,20.805 375.366,20.805 364.795,20.805 363.775,20.805 
								363.176,21.63 350.079,39.678 350.68,40.554 364.285,21.805 377.323,21.805 357.506,49.208 358.117,50.069 376.986,23.977 
															"/>
							<polygon display="inline" fill="#FFFFFF" points="338.03,76.137 324.858,76.137 345.35,47.899 344.739,47.036 325.2,73.962 
								322.896,77.137 326.819,77.137 337.52,77.137 338.541,77.137 339.141,76.309 352.766,57.468 352.162,56.597 							"/>
							<polygon display="inline" fill="#FFFFFF" points="352.162,56.597 352.766,57.468 358.117,50.069 357.506,49.208 							"/>
							<polygon display="inline" fill="#FFFFFF" points="350.68,40.554 350.079,39.678 344.739,47.036 345.35,47.899 							"/>
							<polygon display="inline" fill="#FFFFFF" points="362.863,25.467 364.724,22.766 375.323,22.766 375.296,22.805 
								375.366,22.805 370.124,30.053 356.983,48.471 357.506,49.208 377.323,21.805 364.285,21.805 350.68,40.554 351.279,41.429 
															"/>
						</g>
					</g>
				</g>
			</g>
			<g>
				<path fill="#041A87" d="M159.63,90.53h19.023v2.708H162.6v8.985h14.361v2.707H162.6v9.211h16.242v2.708H159.63V90.53z"/>
				<path fill="#041A87" d="M184.812,90.53h3.009l9.586,14.363l9.589-14.363h3.006v26.319h-2.97V95.532l-9.588,14.098h-0.151
					l-9.586-14.061v21.28h-2.895V90.53z"/>
				<path fill="#041A87" d="M217.436,90.53h11.203c3.01,0,5.379,0.866,6.879,2.333c1.094,1.127,1.693,2.518,1.693,4.21v0.074
					c0,3.422-2.105,5.188-4.172,6.091c3.119,0.94,5.64,2.745,5.64,6.354v0.076c0,4.511-3.797,7.181-9.551,7.181h-11.692V90.53z
					 M234.205,97.486c0-2.593-2.067-4.285-5.828-4.285h-8.01v9.061h7.783c3.57,0,6.055-1.617,6.055-4.7V97.486z M228.678,104.894
					h-8.311v9.286h8.837c3.984,0,6.465-1.767,6.465-4.699v-0.076C235.669,106.547,233.263,104.894,228.678,104.894z"/>
				<path fill="#041A87" d="M244.572,90.53h19.023v2.708H247.54v8.985h14.364v2.707H247.54v9.211h16.244v2.708h-19.212V90.53z"/>
				<path fill="#041A87" d="M269.755,90.53h9.136c8.271,0,13.985,5.678,13.985,13.085v0.075c0,7.406-5.714,13.159-13.985,13.159
					h-9.136V90.53z M272.724,93.275v20.829h6.167c6.654,0,10.901-4.512,10.901-10.339v-0.075c0-5.828-4.247-10.415-10.901-10.415
					H272.724z"/>
				<path fill="#041A87" d="M299.146,90.53h9.136c8.271,0,13.985,5.678,13.985,13.085v0.075c0,7.406-5.715,13.159-13.985,13.159
					h-9.136V90.53z M302.116,93.275v20.829h6.166c6.654,0,10.901-4.512,10.901-10.339v-0.075c0-5.828-4.247-10.415-10.901-10.415
					H302.116z"/>
				<path fill="#041A87" d="M328.54,90.53h19.021v2.708h-16.053v8.985h14.361v2.707h-14.361v9.211h16.243v2.708H328.54V90.53z"/>
				<path fill="#041A87" d="M353.721,90.53h9.135c8.274,0,13.986,5.678,13.986,13.085v0.075c0,7.406-5.712,13.159-13.986,13.159
					h-9.135V90.53z M356.691,93.275v20.829h6.164c6.654,0,10.904-4.512,10.904-10.339v-0.075c0-5.828-4.25-10.415-10.904-10.415
					H356.691z"/>
			</g>
		</g>
	</g>
</g>
<g>
	<path fill="#2447F8" d="M90.346,112.393c-0.344-0.678-0.678-1.344-1-1.998c0.012,0.003,0.024,0.007,0.037,0.012
		C89.715,111.104,90.034,111.757,90.346,112.393z"/>
	<path fill="#186BFF" d="M76.351,73.743c-0.208,0.27-0.411,0.525-0.614,0.78c0-0.002,0-0.004,0-0.009
		C75.948,74.251,76.146,74,76.351,73.743z"/>
	<path fill="#186BFF" d="M70.871,8.06c-0.398,3.513-0.859,6.966-1.407,10.327C69.773,14.941,70.231,11.494,70.871,8.06z"/>
	<path fill="#186BFF" d="M72,2.764c0,0,0.036,2.814,0.583,7.743c-0.387-2.817-0.648-5.105-0.811-6.67
		C71.854,3.481,71.915,3.121,72,2.764z"/>
	<path fill="#186BFF" d="M86.014,60.626c0.006,0.017,0.012,0.035,0.021,0.051c-0.239,0.332-0.482,0.668-0.735,1.022
		C85.706,61.096,85.937,60.744,86.014,60.626z"/>
	<path fill="#186BFF" d="M85.301,58.863c-3.372-7.608-5.964-15.798-7.932-23.553C79.264,42.394,81.833,50.338,85.301,58.863z"/>
	<path fill="#186BFF" d="M90.091,69.72c9.657,20.292,24.452,42.883,47.183,64.338c0.032,0.031,0.063,0.062,0.095,0.091
		c0,0-13.189-8.533-42.14-12.683c-1.541-2.751-3.312-5.995-4.883-9.074c-0.312-0.636-0.631-1.289-0.963-1.986
		c-3.542-7.383-8.133-18.032-12.07-30.63L90.091,69.72z"/>
	<path fill="#008FFE" d="M77.369,35.31c-2.81-10.511-4.152-19.093-4.786-24.803C73.443,16.778,74.93,25.696,77.369,35.31z"/>
	<path fill="#008FFE" d="M86.061,60.553c0,0-0.03,0.048-0.047,0.073c-0.251-0.595-0.474-1.174-0.713-1.763
		C85.552,59.428,85.801,59.995,86.061,60.553z"/>
	<path fill="#008FFE" d="M71.549,1.471c0,0,0.066,0.848,0.224,2.367c-0.324,1.405-0.639,2.812-0.902,4.223
		C71.119,5.884,71.362,3.706,71.549,1.471z"/>
	<path fill="#30B0FF" d="M72.714,78.175c0.14-0.154,0.304-0.35,0.456-0.522c-0.146,0.174-0.3,0.356-0.449,0.532L72.714,78.175z"/>
	<path fill="#60CFFE" d="M95.13,121.45c0,0-1.953-3.314-4.784-9.058c1.571,3.079,3.342,6.322,4.883,9.074
		C95.195,121.46,95.165,121.454,95.13,121.45z"/>
	
		<linearGradient id="SVGID_7_" gradientUnits="userSpaceOnUse" x1="726.6631" y1="110.1494" x2="671.3809" y2="48.3027" gradientTransform="matrix(-1 0 0 1 737.2051 0)">
		<stop  offset="0" style="stop-color:#46C8FE"/>
		<stop  offset="1" style="stop-color:#33B1FF"/>
	</linearGradient>
	<path fill="url(#SVGID_7_)" d="M69.464,18.387c0.548-3.361,1.008-6.814,1.407-10.327c0.263-1.411,0.579-2.818,0.902-4.223
		c0.163,1.565,0.423,3.853,0.811,6.67c0.633,5.709,1.976,14.292,4.786,24.803c1.968,7.754,4.56,15.945,7.932,23.553
		c0.239,0.589,0.462,1.168,0.713,1.763c-0.077,0.118-0.308,0.47-0.715,1.073c-2.666,3.701-6.087,8.371-8.948,12.043
		c-0.205,0.257-0.403,0.508-0.614,0.771c-0.812,1.008-1.668,2.055-2.567,3.138c-0.152,0.172-0.316,0.368-0.456,0.522l0.007,0.01
		c-5.458,6.529-12.502,14.285-20.991,22.266c-12.879,12.104-29.056,24.692-48.001,34.177c-0.023,0.012-0.048,0.027-0.075,0.039
		C3.655,134.667,56.464,97.885,69.464,18.387z"/>
	<path fill="#041A87" d="M3.655,134.667c0,0,13.303-7.603,33.86-36.108c0,0,51.309,3.284,100.652,36.075
		C138.167,134.634,86.671,102.683,3.655,134.667z"/>
	<path fill="#041A87" d="M137.369,134.149c0,0-13.215-8.553-42.239-12.699c0,0-36.774-62.104-23.129-118.686
		C72,2.764,72.636,73.125,137.369,134.149z"/>
	
		<linearGradient id="SVGID_8_" gradientUnits="userSpaceOnUse" x1="726.6631" y1="110.1494" x2="671.3809" y2="48.3027" gradientTransform="matrix(-1 0 0 1 737.2051 0)">
		<stop  offset="0" style="stop-color:#46C8FE"/>
		<stop  offset="1" style="stop-color:#33B1FF"/>
	</linearGradient>
	<path fill="url(#SVGID_8_)" d="M69.464,18.387c0.548-3.361,1.008-6.814,1.407-10.327c0.263-1.411,0.579-2.818,0.902-4.223
		c0.163,1.565,0.423,3.853,0.811,6.67c0.633,5.709,1.976,14.292,4.786,24.803c1.968,7.754,4.56,15.945,7.932,23.553
		c0.239,0.589,0.462,1.168,0.713,1.763c-0.077,0.118-0.308,0.47-0.715,1.073c-2.666,3.701-6.087,8.371-8.948,12.043
		c-0.205,0.257-0.403,0.508-0.614,0.771c-0.812,1.008-1.668,2.055-2.567,3.138c-0.152,0.172-0.316,0.368-0.456,0.522l0.007,0.01
		c-5.458,6.529-12.502,14.285-20.991,22.266c-12.879,12.104-29.056,24.692-48.001,34.177c-0.023,0.012-0.048,0.027-0.075,0.039
		C3.655,134.667,56.464,97.885,69.464,18.387z"/>
	
		<linearGradient id="SVGID_9_" gradientUnits="userSpaceOnUse" x1="726.6631" y1="110.1494" x2="671.3809" y2="48.3027" gradientTransform="matrix(-1 0 0 1 737.2051 0)">
		<stop  offset="0" style="stop-color:#03E7FF"/>
		<stop  offset="1" style="stop-color:#105EFF"/>
	</linearGradient>
	<path fill="url(#SVGID_9_)" d="M69.464,18.387c0.548-3.361,1.008-6.814,1.407-10.327c0.263-1.411,0.579-2.818,0.902-4.223
		c0.163,1.565,0.423,3.853,0.811,6.67c0.633,5.709,1.976,14.292,4.786,24.803c1.968,7.754,4.56,15.945,7.932,23.553
		c0.239,0.589,0.462,1.168,0.713,1.763c-0.077,0.118-0.308,0.47-0.715,1.073c-2.666,3.701-6.087,8.371-8.948,12.043
		c-0.205,0.257-0.403,0.508-0.614,0.771c-0.812,1.008-1.668,2.055-2.567,3.138c-0.152,0.172-0.316,0.368-0.456,0.522l0.007,0.01
		c-5.458,6.529-12.502,14.285-20.991,22.266c-12.879,12.104-29.056,24.692-48.001,34.177c-0.023,0.012-0.048,0.027-0.075,0.039
		C3.655,134.667,56.464,97.885,69.464,18.387z"/>
	<g>
		<g>
			<g>
				<path fill="#041A87" d="M161.054,49.16v-0.15c0-14.702,11.343-27.014,27.387-27.014c16.042,0,27.237,12.163,27.237,26.864v0.15
					c0,14.7-11.346,27.013-27.387,27.013C172.247,76.022,161.054,63.857,161.054,49.16z M206.048,49.16v-0.15
					c0-10.148-7.383-18.581-17.757-18.581c-10.374,0-17.611,8.282-17.611,18.431v0.15c0,10.147,7.387,18.506,17.76,18.506
					C198.813,67.516,206.048,59.306,206.048,49.16z"/>
				<path fill="#041A87" d="M294.267,54.533l-20.745-31.641h10.896l14.549,23.057l14.776-23.057h10.521l-20.742,31.414v20.82h-9.254
					V54.533z"/>
				<path fill="#041A87" d="M271.203,75.126l-14.104-19.773c7.238-2.092,12.388-7.238,12.388-15.821v-0.148
					c0-4.553-1.569-8.433-4.33-11.269c-3.355-3.282-8.507-5.223-15.071-5.223h-23.284v52.234h9.177V31.249h13.36
					c6.788,0,10.821,3.059,10.821,8.657v0.148c0,5.3-4.18,8.731-10.746,8.731h-7.34l7.913,11.697l10.321,14.644H271.203z"/>
			</g>
		</g>
		<g>
			<path fill="#041A87" d="M160.347,90.17h18.887v2.688h-15.938v8.921h14.258v2.688h-14.258v9.144h16.125v2.688h-19.074V90.17z"/>
			<path fill="#041A87" d="M185.348,90.17h2.986l9.518,14.26l9.519-14.26h2.986v26.129h-2.948V95.135l-9.52,13.998h-0.15
				l-9.517-13.96v21.127h-2.875V90.17z"/>
			<path fill="#041A87" d="M217.737,90.17h11.124c2.985,0,5.339,0.859,6.831,2.315c1.083,1.119,1.679,2.499,1.679,4.18v0.074
				c0,3.397-2.089,5.151-4.143,6.047c3.098,0.933,5.6,2.725,5.6,6.309v0.075c0,4.479-3.771,7.129-9.482,7.129h-11.608V90.17z
				 M234.386,97.075c0-2.575-2.054-4.254-5.787-4.254h-7.951v8.995h7.728c3.546,0,6.01-1.605,6.01-4.666V97.075z M228.898,104.43
				h-8.25v9.219h8.772c3.958,0,6.422-1.754,6.422-4.666v-0.075C235.842,106.071,233.453,104.43,228.898,104.43z"/>
			<path fill="#041A87" d="M244.679,90.17h18.887v2.688h-15.938v8.921h14.259v2.688h-14.259v9.144h16.126v2.688h-19.075V90.17z"/>
			<path fill="#041A87" d="M269.679,90.17h9.07c8.213,0,13.887,5.637,13.887,12.99v0.075c0,7.353-5.674,13.064-13.887,13.064h-9.07
				V90.17z M272.63,92.895v20.679h6.119c6.609,0,10.827-4.478,10.827-10.265v-0.074c0-5.785-4.218-10.34-10.827-10.34H272.63z"/>
			<path fill="#041A87" d="M298.862,90.17h9.069c8.21,0,13.885,5.637,13.885,12.99v0.075c0,7.353-5.675,13.064-13.885,13.064h-9.069
				V90.17z M301.811,92.895v20.679h6.121c6.606,0,10.824-4.478,10.824-10.265v-0.074c0-5.785-4.218-10.34-10.824-10.34H301.811z"/>
			<path fill="#041A87" d="M328.042,90.17h18.888v2.688h-15.938v8.921h14.259v2.688h-14.259v9.144h16.126v2.688h-19.075V90.17z"/>
			<path fill="#041A87" d="M353.043,90.17h9.07c8.212,0,13.887,5.637,13.887,12.99v0.075c0,7.353-5.675,13.064-13.887,13.064h-9.07
				V90.17z M355.993,92.895v20.679h6.12c6.608,0,10.826-4.478,10.826-10.265v-0.074c0-5.785-4.218-10.34-10.826-10.34H355.993z"/>
		</g>
	</g>
	<polygon fill="#041A87" points="337.924,22.892 327.105,22.892 342.81,45.124 348.132,37.79 	"/>
	<polygon fill="#041A87" points="364.418,75.126 375.237,75.126 358.73,51.86 353.401,59.229 	"/>
	<polygon fill="#041A87" points="374.465,22.93 364.038,22.93 362.146,25.539 350.621,41.42 335.763,61.893 326.335,74.887 
		326.53,74.887 336.96,74.887 338.757,72.402 350.896,55.615 369.305,30.163 374.535,22.93 	"/>
</g>
</svg>
